<?xml version="1.0" encoding="UTF-8"?>
<svg width="62px" height="41px" viewBox="0 0 62 41" version="1.1" xmlns="http://www.w3.org/2000/svg" xmlns:xlink="http://www.w3.org/1999/xlink">
    <!-- Generator: Sketch 52.2 (67145) - http://www.bohemiancoding.com/sketch -->
    <title>Group</title>
    <desc>Created with Sketch.</desc>
    <g id="Page-1" stroke="none" stroke-width="1" fill="none" fill-rule="evenodd">
        <g id="Home" transform="translate(-1254.000000, -43.000000)" fill-rule="nonzero">
            <g id="Group" transform="translate(1254.000000, 43.000000)">
                <path d="M16.1248564,3.91571436e-06 C15.6331911,0.00114326284 15.1588311,0.27043359 14.9230146,0.73699204 L11.3432626,7.84091926 C10.470633,9.57271103 8.68666217,10.6667184 6.73513271,10.6667184 L3.35937499,10.6667184 L2.68735648,10.6667184 C1.20319509,10.6667184 0,11.8605805 0,13.3334174 L0,14.0000921 L0,19.33349 L0,20.000002 C0,21.4726761 1.20319509,22.6667009 2.68735648,22.6667009 L3.35937499,22.6667009 L4.38961884,22.6667009 L5.98815149,34.5620272 C6.40633066,37.6751834 9.08253294,40 12.247612,40 L30.752388,40 C33.9174466,40 36.5935258,37.6751834 37.0119715,34.5620272 L38.6103606,22.6667009 L39.640625,22.6667009 L40.3123565,22.6667009 C41.7966614,22.6667009 43,21.4726761 43,20.000002 L43,18.6666525 L43,14.0000921 L43,13.3334174 C43,11.8605805 41.7966614,10.6667184 40.3123565,10.6667184 L39.640625,10.6667184 L36.2645803,10.6667184 C34.3131943,10.6667184 32.529367,9.57271103 31.6567374,7.84091926 L28.0768418,0.73699204 C27.8408819,0.270596392 27.3663988,0.0012247305 26.8750001,3.91571451e-06 C26.6723591,-0.000484356865 26.4678317,0.04468219 26.2739254,0.14071202 C25.6099855,0.470061741 25.3408294,1.27085264 25.6730147,1.92963341 L28.6250983,7.78826556 C29.2914577,9.11070997 28.3222133,10.6667184 26.8318596,10.6667184 L16.1678535,10.6667184 C14.6776435,10.6667184 13.708522,9.11070997 14.3749018,7.78826556 L17.3269854,1.92963341 C17.6588836,1.27085264 17.3901377,0.470061741 16.7260542,0.14071202 C16.5317378,0.04468219 16.3274974,-0.000321554893 16.1248564,3.91571436e-06 Z M35.4014849,26.3697894 C34.558012,32.6461512 25.3115496,37.3334637 18.93048,37.3334637 L14.9803848,37.3334637 C11.5979018,37.3334637 8.73773771,34.8487331 8.29079154,31.5218699 L7.5984945,26.3697892 C7.33499762,24.4089907 8.87236681,22.6667008 10.8658271,22.6667008 L32.1341523,22.6667008 C34.1276125,22.6667009 35.6650022,24.4089909 35.4014849,26.3697894 Z M25.5312499,20.000002 L6.04673147,20.000002 C4.19155022,20.000002 2.68735648,18.5076336 2.68735648,16.6667911 C2.68735648,14.8257857 4.19155022,13.3334174 6.04673147,13.3334174 L8.06249997,13.3334174 L8.45365471,13.3334174 L8.43364278,13.3405789 C10.3670262,13.3444852 11.1750273,14.666604 12.3333391,14.666604 C13.4924506,14.666604 14.4451688,13.4010451 16.2445792,13.3438342 L16.2224143,13.3365098 L27.0065534,13.3405789 C26.9608501,13.3405789 26.9223025,13.3319525 26.8749998,13.3334174 L27.1472313,13.3334174 L27.1263993,13.3405789 C29.0598033,13.3444852 29.8676607,14.666604 31.0259727,14.666604 C32.1850841,14.666604 33.1378024,13.4010451 34.9373562,13.3438342 L34.9064567,13.3334174 L36.2812498,13.3334174 C37.9048998,13.3334174 39.2209695,14.3890128 39.2209695,15.9999535 C39.2209696,18.9166555 29.8143095,20.000002 25.5312499,20.000002 Z" id="XMLID_148_" fill="#F13EF8"></path>
                <path d="M29,36.6597976 C40.8067517,39.6918969 47.1769958,42.3640732 60.737076,40.2326835 C61.2651951,40.1496731 61.3778566,36.8249273 61.3730504,35.206357 C61.3513712,27.9055322 62.7145093,19.5651018 61.4865737,13.3057344 C60.6559647,9.07172847 58.2992681,11.6570178 56.6893003,11.3310728 C49.6761308,9.91122584 42.6541709,8.88710408 35.6307351,8.07110636 C34.1341087,7.89722513 32.6330829,8.06056366 31.1386318,8.36254175 C30.872604,8.41629697 30.6034463,8.69005888 30.3793687,9.1322301 C30.1899024,9.50610302 30.1242465,10.6759659 30.2139665,10.6547932 L29,36.6597976 Z" id="Path-2-Copy" fill="#3EF8B1"></path>
            </g>
        </g>
    </g>
</svg>