<?xml version="1.0" encoding="UTF-8"?>
<svg width="264px" height="73px" viewBox="0 0 264 73" version="1.1" xmlns="http://www.w3.org/2000/svg" xmlns:xlink="http://www.w3.org/1999/xlink">
    <!-- Generator: Sketch 52.2 (67145) - http://www.bohemiancoding.com/sketch -->
    <title>Logo</title>
    <desc>Created with Sketch.</desc>
    <g id="Page-1" stroke="none" stroke-width="1" fill="none" fill-rule="evenodd">
        <g id="Home" transform="translate(-589.000000, -27.000000)">
            <g id="Logo" transform="translate(720.500000, 63.000000) rotate(-2.000000) translate(-720.500000, -63.000000) translate(587.000000, 25.000000)">
                <path d="M0.998172481,65.2415939 C95.8829391,72.1328336 147.077301,78.206054 256.052663,73.3619127 C260.296884,73.1732498 261.202286,65.6168942 261.163661,61.9382695 C260.989437,45.3452332 271.944274,26.3894208 262.075989,12.1633694 C255.400814,2.5404821 236.46126,8.41622922 223.52278,7.67543373 C167.161559,4.44845971 110.729693,2.12087482 54.2859663,0.266306313 C42.2583532,-0.128884323 30.1953839,0.242345278 18.1852518,0.928669566 C16.0473242,1.05084238 13.8842422,1.67303801 12.0834462,2.6779879 C10.5608034,3.52771201 10.0331611,6.18653172 10.7541944,6.13841131 L0.998172481,65.2415939 Z" id="Path-2" fill="#3EF8B1" fill-rule="nonzero"></path>
                <path d="M65.7178504,48.6886288 C65.3178484,48.395294 65.1178504,48.0686306 65.1178504,47.7086288 C65.1178504,47.348627 65.2645156,47.04863 65.5578504,46.8086288 C65.0511812,42.9952764 64.7978504,38.6219868 64.7978504,33.6886288 C64.7978504,32.195288 64.8645164,29.2886504 64.9978504,24.9686288 C65.1311844,24.5686268 65.404515,24.2219636 65.8178504,23.9286288 C66.2311858,23.635294 66.6245152,23.4886288 66.9978504,23.4886288 C67.3711856,23.4886288 67.59785,23.501962 67.6778504,23.5286288 C71.4912028,24.5953008 74.8111696,26.6552802 77.6378504,29.7086288 C80.4645312,32.7619774 81.9445164,36.4219408 82.0778504,40.6886288 C82.0778504,45.3819856 80.1312032,48.3286228 76.2378504,49.5286288 C75.1178448,49.8752972 73.9378566,50.0486288 72.6978504,50.0486288 C71.4578442,50.0486288 70.3711884,49.9552964 69.4378504,49.7686288 C69.5445176,49.9819632 69.5978504,50.268627 69.5978504,50.6286288 C69.5978504,50.9886306 69.3778526,51.3352938 68.9378504,51.6686288 C68.4978482,52.0019638 67.9778534,52.1686288 67.3778504,52.1686288 C66.7778474,52.1686288 66.3978512,51.8086324 66.2378504,51.0886288 L65.7178504,48.6886288 Z M68.1178504,33.3686288 C68.1178504,38.0353188 68.3845144,42.4619412 68.9178504,46.6486288 C69.5578536,46.8352964 70.6378428,46.9286288 72.1578504,46.9286288 C73.677858,46.9286288 75.1378434,46.675298 76.5378504,46.1686288 C77.9378574,45.6619596 78.67785,44.9153004 78.7578504,43.9286288 C78.8378508,43.1819584 78.8778504,42.6086308 78.8778504,42.2086288 C78.8778504,38.7419448 77.951193,35.6753088 76.0978504,33.0086288 C74.2445078,30.3419488 71.6512004,28.3153024 68.3178504,26.9286288 C68.1845164,30.0753112 68.1178504,32.2219564 68.1178504,33.3686288 Z M88.9578504,48.4886288 C88.9578504,48.8886308 88.7711856,49.235294 88.3978504,49.5286288 C88.0245152,49.8219636 87.611186,49.9686288 87.1578504,49.9686288 C86.5711808,49.9686288 86.2778504,49.7019648 86.2778504,49.1686288 C86.1711832,47.9152892 86.1178504,42.9420056 86.1178504,34.2486288 C86.1178504,33.3952912 86.6311786,32.7286312 87.6578504,32.2486288 C88.6845222,31.7686264 90.0578418,31.5286288 91.7778504,31.5286288 C93.497859,31.5286288 95.0045106,31.9552912 96.2978504,32.8086288 C97.5911902,33.6619664 98.2378504,34.6886228 98.2378504,35.8886288 C98.2378504,36.4752984 97.9845196,37.1286252 97.4778504,37.8486288 C96.9711812,38.5686324 96.4311866,39.1352934 95.8578504,39.5486288 C95.2845142,39.9619642 94.4645224,40.4619592 93.3978504,41.0486288 C92.3311784,41.6352984 91.6778516,41.9552952 91.4378504,42.0086288 C93.1178588,43.0753008 94.6111772,44.2352892 95.9178504,45.4886288 C97.2245236,46.7419684 97.8778504,47.7286252 97.8778504,48.4486288 C97.8778504,49.1686324 97.5578536,49.6352944 96.9178504,49.8486288 C96.7311828,49.9019624 96.4911852,49.9286288 96.1978504,49.9286288 C95.9045156,49.9286288 95.531186,49.641965 95.0778504,49.0686288 C94.6245148,48.4952926 93.77119,47.6686342 92.5178504,46.5886288 C91.2645108,45.5086234 90.0245232,44.5419664 88.7978504,43.6886288 C88.851184,45.8219728 88.9045168,47.4086236 88.9578504,48.4486288 L88.9578504,48.4886288 Z M88.7978504,40.1286288 C89.6778548,40.1286288 90.9978416,39.6952998 92.7578504,38.8286288 C94.5178592,37.9619578 95.43785,37.1552992 95.5178504,36.4086288 C95.5178504,35.6886252 95.1178544,35.1486306 94.3178504,34.7886288 C93.5178464,34.428627 92.6778548,34.2486288 91.7978504,34.2486288 C90.784512,34.2486288 89.7978552,34.3686276 88.8378504,34.6086288 C88.8111836,35.8886352 88.7978504,37.7286168 88.7978504,40.1286288 Z M106.75785,48.8886288 C106.651183,49.5552988 106.177855,49.8886288 105.33785,49.8886288 C104.497846,49.8886288 104.07785,49.5419656 104.07785,48.8486288 C104.07785,47.2752876 104.851176,44.0753196 106.39785,39.2486288 C107.091187,37.0352844 107.864513,35.1953028 108.71785,33.7286288 C109.571188,32.2619548 110.397846,31.5286288 111.19785,31.5286288 C111.624519,31.5286288 111.997849,31.7819596 112.31785,32.2886288 C112.637852,32.795298 113.217846,33.9486198 114.05785,35.7486288 C114.897855,37.5486378 115.597848,39.4552854 116.15785,41.4686288 C116.717853,43.4819722 117.33118,45.9419476 117.99785,48.8486288 C117.99785,49.1952972 117.877852,49.4686278 117.63785,49.6686288 C117.397849,49.8686298 117.104519,49.9686288 116.75785,49.9686288 C115.904513,49.9686288 115.371185,49.5952992 115.15785,48.8486288 L113.75785,43.3686288 C111.411172,43.3686288 109.531191,43.181964 108.11785,42.8086288 C107.317846,45.7419768 106.864518,47.7686232 106.75785,48.8886288 Z M111.07785,35.2086288 C110.197846,36.7019696 109.477853,38.3686196 108.91785,40.2086288 C110.09119,40.5286304 111.477842,40.6886288 113.07785,40.6886288 C112.571181,38.8486196 111.904521,37.0219712 111.07785,35.2086288 Z M122.99785,33.4486288 C122.99785,32.9686264 123.157849,32.5486306 123.47785,32.1886288 C123.797852,31.828627 124.197848,31.6486288 124.67785,31.6486288 C125.237853,31.6486288 125.59785,32.0086252 125.75785,32.7286288 C125.891184,33.6353 126.131182,35.5419476 126.47785,38.4486288 C126.824519,41.35531 127.117849,43.621954 127.35785,45.2486288 C127.811186,44.421958 128.271181,43.4953006 128.73785,42.4686288 C129.204519,41.441957 129.544516,40.7152976 129.75785,40.2886288 C130.42452,39.0086224 131.13118,38.3686288 131.87785,38.3686288 C132.437853,38.3686288 132.997848,39.048622 133.55785,40.4086288 C135.024524,43.5019776 135.83785,45.1686276 135.99785,45.4086288 C137.037856,40.6619384 137.771182,36.3819812 138.19785,32.5686288 C138.224517,32.2486272 138.417849,31.9486302 138.77785,31.6686288 C139.137852,31.3886274 139.477849,31.2486288 139.79785,31.2486288 C140.117852,31.2486288 140.384516,31.3352946 140.59785,31.5086288 C140.811185,31.681963 140.91785,31.915294 140.91785,32.2086288 C140.91785,33.648636 139.931194,39.1952472 137.95785,48.8486288 C137.79785,49.5419656 137.237855,49.8886288 136.27785,49.8886288 C135.824515,49.8886288 135.464518,49.6619644 135.19785,49.2086288 C134.691181,48.3286244 134.044521,47.0953034 133.25785,45.5086288 C132.47118,43.9219542 131.931185,42.8619648 131.63785,42.3286288 C130.491178,45.0219756 129.551187,46.9686228 128.81785,48.1686288 C128.084513,49.3686348 127.304521,49.9686288 126.47785,49.9686288 C125.997848,49.9686288 125.577852,49.5419664 125.21785,48.6886288 C124.857849,47.8352912 124.644517,47.055299 124.57785,46.3486288 C124.511183,45.6419586 123.984522,41.3420016 122.99785,33.4486288 Z M154.59785,23.4886288 C156.331192,23.4886288 157.804511,23.7819592 159.01785,24.3686288 C160.23119,24.9552984 160.83785,25.7019576 160.83785,26.6086288 C160.83785,27.0086308 160.737851,27.355294 160.53785,27.6486288 C160.337849,27.9419636 160.044519,28.0886288 159.65785,28.0886288 C159.271182,28.0886288 158.437857,27.7886318 157.15785,27.1886288 C155.877844,26.5886258 154.711189,26.2886288 153.65785,26.2886288 C152.604512,26.2886288 151.517856,26.6219588 150.39785,27.2886288 C149.277845,27.9552988 148.71785,28.768624 148.71785,29.7286288 C148.71785,31.035302 149.397844,31.9952924 150.75785,32.6086288 C151.771189,33.0619644 153.224508,33.468627 155.11785,33.8286288 C157.011193,34.1886306 158.557844,34.9219566 159.75785,36.0286288 C160.957856,37.135301 161.55785,38.8086176 161.55785,41.0486288 C161.55785,44.4619792 160.531194,46.981954 158.47785,48.6086288 C157.331178,49.5153 155.711194,49.9686288 153.61785,49.9686288 C151.524507,49.9686288 149.437861,49.3953012 147.35785,48.2486288 C145.997844,47.5286252 145.31785,46.8086324 145.31785,46.0886288 C145.31785,45.8219608 145.431183,45.5286304 145.65785,45.2086288 C145.884518,44.8886272 146.197848,44.6219632 146.59785,44.4086288 C146.997852,44.1952944 147.364515,44.1619614 147.69785,44.3086288 C148.031185,44.4552962 148.57118,44.7152936 149.31785,45.0886288 C150.064521,45.461964 150.611182,45.7152948 150.95785,45.8486288 C152.077856,46.2752976 153.131179,46.4886288 154.11785,46.4886288 C155.104522,46.4886288 156.057846,46.001967 156.97785,45.0286288 C157.897855,44.0552906 158.35785,42.8619692 158.35785,41.4486288 C158.35785,39.5819528 157.424526,38.2752992 155.55785,37.5286288 C154.651179,37.1552936 153.624523,36.8752964 152.47785,36.6886288 C150.104505,36.26196 148.317856,35.5486338 147.11785,34.5486288 C145.917844,33.5486238 145.31785,32.0353056 145.31785,30.0086288 C145.31785,27.981952 146.184508,26.3886346 147.91785,25.2286288 C149.651192,24.068623 151.877837,23.4886288 154.59785,23.4886288 Z M173.91785,33.9286288 L173.83785,43.4086288 C173.83785,45.381972 173.864517,47.115288 173.91785,48.6086288 C173.944517,49.0086308 173.777852,49.3352942 173.41785,49.5886288 C173.057849,49.8419634 172.691186,49.9686288 172.31785,49.9686288 C171.624514,49.9686288 171.27785,49.5952992 171.27785,48.8486288 C171.19785,45.9419476 171.15785,43.1753086 171.15785,40.5486288 C171.15785,37.921949 171.23785,35.755304 171.39785,34.0486288 C169.797842,34.1819628 168.171192,34.2486288 166.51785,34.2486288 C165.69118,34.2486288 165.27785,33.9019656 165.27785,33.2086288 C165.27785,32.8886272 165.431182,32.5686304 165.73785,32.2486288 C166.044519,31.9286272 166.384515,31.7552956 166.75785,31.7286288 L179.23785,31.3286288 C179.957854,31.4886296 180.31785,31.8352928 180.31785,32.3686288 C180.31785,33.4619676 179.06453,34.0086288 176.55785,34.0086288 L173.91785,33.9286288 Z M192.99785,31.6886288 C194.971194,31.6886288 196.564511,32.4486212 197.77785,33.9686288 C198.99119,35.4886364 199.59785,37.5686156 199.59785,40.2086288 C199.59785,42.848642 198.93119,45.1286192 197.59785,47.0486288 C196.26451,48.9686384 194.571194,49.9286288 192.51785,49.9286288 C190.277839,49.9286288 188.451191,48.9686384 187.03785,47.0486288 C185.62451,45.1286192 184.91785,42.781976 184.91785,40.0086288 C184.91785,37.2352816 185.651176,35.1553024 187.11785,33.7686288 C188.584524,32.3819552 190.544505,31.6886288 192.99785,31.6886288 Z M196.71785,40.6486288 C196.71785,38.5152848 196.411187,36.9486338 195.79785,35.9486288 C195.184514,34.9486238 194.104525,34.4486288 192.55785,34.4486288 C191.011176,34.4486288 189.811188,34.9219574 188.95785,35.8686288 C188.104513,36.8153002 187.67785,38.1619534 187.67785,39.9086288 C187.67785,41.6553042 188.131179,43.275288 189.03785,44.7686288 C189.944522,46.2619696 191.197842,47.0086288 192.79785,47.0086288 C193.704522,47.0086288 194.477847,46.621966 195.11785,45.8486288 C196.184522,44.5152888 196.71785,42.7819728 196.71785,40.6486288 Z M208.11785,48.4886288 C208.11785,48.8886308 207.931186,49.235294 207.55785,49.5286288 C207.184515,49.8219636 206.771186,49.9686288 206.31785,49.9686288 C205.731181,49.9686288 205.43785,49.7019648 205.43785,49.1686288 C205.331183,47.9152892 205.27785,42.9420056 205.27785,34.2486288 C205.27785,33.3952912 205.791179,32.7286312 206.81785,32.2486288 C207.844522,31.7686264 209.217842,31.5286288 210.93785,31.5286288 C212.657859,31.5286288 214.164511,31.9552912 215.45785,32.8086288 C216.75119,33.6619664 217.39785,34.6886228 217.39785,35.8886288 C217.39785,36.4752984 217.14452,37.1286252 216.63785,37.8486288 C216.131181,38.5686324 215.591187,39.1352934 215.01785,39.5486288 C214.444514,39.9619642 213.624522,40.4619592 212.55785,41.0486288 C211.491178,41.6352984 210.837852,41.9552952 210.59785,42.0086288 C212.277859,43.0753008 213.771177,44.2352892 215.07785,45.4886288 C216.384524,46.7419684 217.03785,47.7286252 217.03785,48.4486288 C217.03785,49.1686324 216.717854,49.6352944 216.07785,49.8486288 C215.891183,49.9019624 215.651185,49.9286288 215.35785,49.9286288 C215.064516,49.9286288 214.691186,49.641965 214.23785,49.0686288 C213.784515,48.4952926 212.93119,47.6686342 211.67785,46.5886288 C210.424511,45.5086234 209.184523,44.5419664 207.95785,43.6886288 C208.011184,45.8219728 208.064517,47.4086236 208.11785,48.4486288 L208.11785,48.4886288 Z M207.95785,40.1286288 C208.837855,40.1286288 210.157842,39.6952998 211.91785,38.8286288 C213.677859,37.9619578 214.59785,37.1552992 214.67785,36.4086288 C214.67785,35.6886252 214.277854,35.1486306 213.47785,34.7886288 C212.677846,34.428627 211.837855,34.2486288 210.95785,34.2486288 C209.944512,34.2486288 208.957855,34.3686276 207.99785,34.6086288 C207.971184,35.8886352 207.95785,37.7286168 207.95785,40.1286288 Z M226.35785,40.9686288 L226.43785,46.2086288 C226.43785,46.9019656 226.424517,47.2752952 226.39785,47.3286288 L233.31785,47.2086288 C234.091188,47.2886292 234.47785,47.6219592 234.47785,48.2086288 C234.47785,49.3286344 233.957856,49.8886288 232.91785,49.8886288 L225.07785,49.9686288 C224.597848,49.9686288 224.244518,49.8019638 224.01785,49.4686288 C223.791183,49.1352938 223.664517,48.781964 223.63785,48.4086288 C223.611184,48.0352936 223.59785,47.6219644 223.59785,47.1686288 L223.59785,40.5286288 C223.251182,40.3419612 223.07785,40.061964 223.07785,39.6886288 C223.07785,39.3152936 223.224516,38.9819636 223.51785,38.6886288 C223.43785,36.6086184 223.39785,34.715304 223.39785,33.0086288 C223.39785,32.0219572 223.997844,31.5152956 225.19785,31.4886288 L226.31785,31.4886288 L233.31785,31.6086288 L233.35785,31.6086288 C234.211188,31.715296 234.63785,32.115292 234.63785,32.8086288 C234.63785,33.3419648 234.477852,33.7019612 234.15785,33.8886288 C233.464514,34.261964 231.797864,34.4486288 229.15785,34.4486288 C228.171179,34.4486288 227.184522,34.4086292 226.19785,34.3286288 C226.19785,36.7286408 226.211184,38.075294 226.23785,38.3686288 C227.277856,38.3952956 229.317835,38.4086288 232.35785,38.4086288 C233.184521,38.515296 233.59785,38.8886256 233.59785,39.5286288 C233.59785,39.8486304 233.464518,40.155294 233.19785,40.4486288 C232.931182,40.7419636 232.644519,40.9086286 232.33785,40.9486288 C232.031182,40.988629 231.377855,41.0086288 230.37785,41.0086288 C229.377845,41.0086288 228.037859,40.9952956 226.35785,40.9686288 Z" id="DrawStore" fill="#1C1C1C" transform="translate(149.717850, 37.828629) rotate(2.000000) translate(-149.717850, -37.828629) "></path>
                <path d="M52.6351478,24.0909258 C52.6351478,23.591231 52.4444129,23.0915362 52.0631263,22.7101275 L47.5372474,18.1843096 C47.1558388,17.803084 46.6561439,17.6124102 46.156327,17.6124102 C45.6565101,17.6124102 45.1568153,17.803084 44.7756507,18.1843096 L26.2892615,36.6706377 C25.4884192,37.4714189 24.9063269,38.4640337 24.5983435,39.5539995 L22.6729285,46.369185 C22.6471106,46.4607377 22.6351477,46.5513139 22.6351477,46.6393876 C22.6351477,47.1710038 23.0765539,47.6124101 23.6080481,47.6124101 C23.6961218,47.6124101 23.786759,47.6002031 23.8781287,47.5743852 L30.6933142,45.6489091 C31.7834021,45.3409867 32.7760168,44.7590165 33.5768591,43.9582353 L52.0631262,25.4717851 C52.444413,25.0904986 52.6351478,24.5906817 52.6351478,24.0909258 Z M46.8787391,27.5038897 C46.8787391,27.7538897 46.7835243,28.0038287 46.5928504,28.1948077 C46.5928504,28.1948077 39.9124305,34.8749224 37.4035193,37.3838946 C35.3947302,39.3928057 29.8298499,42.33763 27.3664099,42.33763 C26.6264197,42.33763 26.1662146,42.072005 26.1662146,41.4354083 C26.1662146,41.282088 26.192948,41.1075274 26.2487341,40.9097125 C26.6170202,39.6061236 27.3135534,38.4185016 28.2715612,37.4607379 L42.0652013,23.6667926 C42.2560582,23.4759967 42.5061193,23.3805988 42.7561193,23.3805988 C43.0060583,23.3805988 43.2561193,23.4759967 43.4468542,23.6667926 L46.5929113,26.813338 C46.7835243,27.0040118 46.8787391,27.2540118 46.8787391,27.5038897 Z M49.6324013,23.3487383 C49.6324013,24.0165239 48.5890053,24.5378862 47.7094277,24.5378862 C47.3317422,24.5378862 46.9844521,24.4416948 46.7627114,24.2200151 L44.828019,22.2853227 C44.6372231,22.0945878 44.5419472,21.8447099 44.5419472,21.5947099 C44.5419472,21.3445878 44.6372231,21.094832 44.828019,20.9040361 L45.4754189,20.2566972 C45.6661538,20.0659013 45.9162148,19.9706254 46.1660317,19.9706254 C46.4161538,19.9706254 46.6661538,20.0659013 46.8567055,20.2566972 L49.328019,22.7278276 C49.5412147,22.9410845 49.6324013,23.1512896 49.6324013,23.3487383 Z" id="XMLID_122_" fill="#1C1C1C" fill-rule="nonzero"></path>
            </g>
        </g>
    </g>
</svg>